<svg xmlns="http://www.w3.org/2000/svg" xmlns:xlink="http://www.w3.org/1999/xlink" width="462" zoomAndPan="magnify" viewBox="0 0 346.5 94.499997" height="126" preserveAspectRatio="xMidYMid meet" version="1.0"><defs><g/><clipPath id="15e917b779"><path d="M 1.257812 7.59375 L 92.273438 7.59375 L 92.273438 86.675781 L 1.257812 86.675781 Z M 1.257812 7.59375 " clip-rule="nonzero"/></clipPath><clipPath id="1d6cc24101"><path d="M 5 12 L 77 12 L 77 71 L 5 71 Z M 5 12 " clip-rule="nonzero"/></clipPath><clipPath id="aa4400094b"><path d="M 12.046875 54.390625 C 23.144531 51.308594 36.074219 46.347656 49.480469 41.015625 C 36.386719 35.894531 21.878906 31.351562 7.480469 29.046875 C 6.796875 23.5 6.257812 17.683594 5.988281 12.207031 C 30.136719 12.757812 54.554688 21.65625 76.234375 31.308594 C 75.582031 37.292969 74.210938 43.75 73.203125 49.6875 C 50.558594 59.226562 31.203125 67.507812 16.613281 70.285156 C 14.921875 64.582031 13.351562 60.027344 12.058594 54.402344 Z M 12.046875 54.390625 " clip-rule="nonzero"/></clipPath><linearGradient x1="35.509998" gradientTransform="matrix(1.122108, 0, 0, 1.124916, 1.264619, 7.593459)" y1="55.729997" x2="35.509998" gradientUnits="userSpaceOnUse" y2="4.100002" id="06b8a767ff"><stop stop-opacity="1" stop-color="rgb(98.399353%, 68.998718%, 23.098755%)" offset="0"/><stop stop-opacity="1" stop-color="rgb(98.402405%, 69.186401%, 23.019409%)" offset="0.015625"/><stop stop-opacity="1" stop-color="rgb(98.408508%, 69.563293%, 22.862244%)" offset="0.03125"/><stop stop-opacity="1" stop-color="rgb(98.414612%, 69.943237%, 22.702026%)" offset="0.046875"/><stop stop-opacity="1" stop-color="rgb(98.420715%, 70.323181%, 22.543335%)" offset="0.0625"/><stop stop-opacity="1" stop-color="rgb(98.426819%, 70.703125%, 22.383118%)" offset="0.078125"/><stop stop-opacity="1" stop-color="rgb(98.432922%, 71.083069%, 22.224426%)" offset="0.09375"/><stop stop-opacity="1" stop-color="rgb(98.439026%, 71.463013%, 22.064209%)" offset="0.109375"/><stop stop-opacity="1" stop-color="rgb(98.446655%, 71.841431%, 21.905518%)" offset="0.125"/><stop stop-opacity="1" stop-color="rgb(98.452759%, 72.221375%, 21.7453%)" offset="0.140625"/><stop stop-opacity="1" stop-color="rgb(98.458862%, 72.601318%, 21.586609%)" offset="0.15625"/><stop stop-opacity="1" stop-color="rgb(98.464966%, 72.981262%, 21.426392%)" offset="0.171875"/><stop stop-opacity="1" stop-color="rgb(98.471069%, 73.361206%, 21.2677%)" offset="0.1875"/><stop stop-opacity="1" stop-color="rgb(98.477173%, 73.74115%, 21.109009%)" offset="0.203125"/><stop stop-opacity="1" stop-color="rgb(98.483276%, 74.121094%, 20.948792%)" offset="0.21875"/><stop stop-opacity="1" stop-color="rgb(98.48938%, 74.501038%, 20.7901%)" offset="0.234375"/><stop stop-opacity="1" stop-color="rgb(98.495483%, 74.879456%, 20.629883%)" offset="0.25"/><stop stop-opacity="1" stop-color="rgb(98.501587%, 75.259399%, 20.471191%)" offset="0.265625"/><stop stop-opacity="1" stop-color="rgb(98.509216%, 75.639343%, 20.310974%)" offset="0.28125"/><stop stop-opacity="1" stop-color="rgb(98.51532%, 76.019287%, 20.152283%)" offset="0.296875"/><stop stop-opacity="1" stop-color="rgb(98.521423%, 76.399231%, 19.992065%)" offset="0.3125"/><stop stop-opacity="1" stop-color="rgb(98.527527%, 76.779175%, 19.833374%)" offset="0.328125"/><stop stop-opacity="1" stop-color="rgb(98.53363%, 77.159119%, 19.673157%)" offset="0.34375"/><stop stop-opacity="1" stop-color="rgb(98.539734%, 77.539062%, 19.514465%)" offset="0.359375"/><stop stop-opacity="1" stop-color="rgb(98.545837%, 77.919006%, 19.354248%)" offset="0.375"/><stop stop-opacity="1" stop-color="rgb(98.551941%, 78.297424%, 19.195557%)" offset="0.390625"/><stop stop-opacity="1" stop-color="rgb(98.558044%, 78.677368%, 19.035339%)" offset="0.40625"/><stop stop-opacity="1" stop-color="rgb(98.564148%, 79.057312%, 18.876648%)" offset="0.421875"/><stop stop-opacity="1" stop-color="rgb(98.570251%, 79.437256%, 18.717957%)" offset="0.4375"/><stop stop-opacity="1" stop-color="rgb(98.577881%, 79.8172%, 18.557739%)" offset="0.453125"/><stop stop-opacity="1" stop-color="rgb(98.583984%, 80.197144%, 18.399048%)" offset="0.46875"/><stop stop-opacity="1" stop-color="rgb(98.590088%, 80.577087%, 18.238831%)" offset="0.484375"/><stop stop-opacity="1" stop-color="rgb(98.596191%, 80.957031%, 18.080139%)" offset="0.5"/><stop stop-opacity="1" stop-color="rgb(98.602295%, 81.335449%, 17.919922%)" offset="0.515625"/><stop stop-opacity="1" stop-color="rgb(98.608398%, 81.715393%, 17.76123%)" offset="0.53125"/><stop stop-opacity="1" stop-color="rgb(98.614502%, 82.095337%, 17.601013%)" offset="0.546875"/><stop stop-opacity="1" stop-color="rgb(98.620605%, 82.475281%, 17.442322%)" offset="0.5625"/><stop stop-opacity="1" stop-color="rgb(98.626709%, 82.855225%, 17.282104%)" offset="0.578125"/><stop stop-opacity="1" stop-color="rgb(98.632812%, 83.235168%, 17.123413%)" offset="0.59375"/><stop stop-opacity="1" stop-color="rgb(98.640442%, 83.615112%, 16.963196%)" offset="0.609375"/><stop stop-opacity="1" stop-color="rgb(98.646545%, 83.995056%, 16.804504%)" offset="0.625"/><stop stop-opacity="1" stop-color="rgb(98.652649%, 84.373474%, 16.644287%)" offset="0.640625"/><stop stop-opacity="1" stop-color="rgb(98.658752%, 84.753418%, 16.485596%)" offset="0.65625"/><stop stop-opacity="1" stop-color="rgb(98.664856%, 85.133362%, 16.325378%)" offset="0.671875"/><stop stop-opacity="1" stop-color="rgb(98.670959%, 85.513306%, 16.166687%)" offset="0.6875"/><stop stop-opacity="1" stop-color="rgb(98.677063%, 85.89325%, 16.007996%)" offset="0.703125"/><stop stop-opacity="1" stop-color="rgb(98.683167%, 86.273193%, 15.847778%)" offset="0.71875"/><stop stop-opacity="1" stop-color="rgb(98.68927%, 86.653137%, 15.689087%)" offset="0.734375"/><stop stop-opacity="1" stop-color="rgb(98.695374%, 87.033081%, 15.52887%)" offset="0.75"/><stop stop-opacity="1" stop-color="rgb(98.703003%, 87.413025%, 15.370178%)" offset="0.765625"/><stop stop-opacity="1" stop-color="rgb(98.709106%, 87.791443%, 15.209961%)" offset="0.78125"/><stop stop-opacity="1" stop-color="rgb(98.71521%, 88.171387%, 15.05127%)" offset="0.796875"/><stop stop-opacity="1" stop-color="rgb(98.721313%, 88.551331%, 14.891052%)" offset="0.8125"/><stop stop-opacity="1" stop-color="rgb(98.727417%, 88.931274%, 14.732361%)" offset="0.828125"/><stop stop-opacity="1" stop-color="rgb(98.733521%, 89.311218%, 14.572144%)" offset="0.84375"/><stop stop-opacity="1" stop-color="rgb(98.739624%, 89.691162%, 14.413452%)" offset="0.859375"/><stop stop-opacity="1" stop-color="rgb(98.745728%, 90.071106%, 14.253235%)" offset="0.875"/><stop stop-opacity="1" stop-color="rgb(98.751831%, 90.45105%, 14.094543%)" offset="0.890625"/><stop stop-opacity="1" stop-color="rgb(98.757935%, 90.829468%, 13.934326%)" offset="0.90625"/><stop stop-opacity="1" stop-color="rgb(98.764038%, 91.209412%, 13.775635%)" offset="0.921875"/><stop stop-opacity="1" stop-color="rgb(98.771667%, 91.589355%, 13.616943%)" offset="0.9375"/><stop stop-opacity="1" stop-color="rgb(98.777771%, 91.969299%, 13.456726%)" offset="0.953125"/><stop stop-opacity="1" stop-color="rgb(98.783875%, 92.349243%, 13.298035%)" offset="0.96875"/><stop stop-opacity="1" stop-color="rgb(98.789978%, 92.729187%, 13.137817%)" offset="0.984375"/><stop stop-opacity="1" stop-color="rgb(98.796082%, 93.109131%, 12.979126%)" offset="1"/></linearGradient></defs><g clip-path="url(#15e917b779)"><path fill="#000000" d="M 78.050781 27.191406 C 58.367188 18.425781 32.414062 8.300781 6.089844 7.707031 L 1.265625 7.59375 L 1.5 12.417969 C 1.757812 17.671875 2.285156 23.613281 3.027344 29.585938 L 3.441406 32.949219 L 14.664062 44.199219 L 17.996094 44.738281 C 19.980469 45.054688 22 45.4375 24.054688 45.851562 C 19.464844 47.460938 15 48.898438 10.847656 50.058594 L 6.707031 51.207031 L 7.671875 55.402344 C 8.648438 59.675781 9.78125 63.34375 10.972656 67.214844 C 11.398438 68.609375 11.847656 70.046875 12.296875 71.566406 L 13.449219 75.460938 L 24.671875 86.707031 L 28.65625 85.957031 C 43.164062 83.1875 61.882812 75.300781 83.558594 66.167969 L 88.417969 64.121094 L 88.832031 61.679688 C 89.125 59.9375 89.460938 58.160156 89.789062 56.347656 C 90.59375 51.949219 91.425781 47.402344 91.898438 43.027344 L 92.246094 39.765625 L 81.023438 28.515625 L 78.027344 27.191406 Z M 78.050781 27.191406 " fill-opacity="1" fill-rule="nonzero"/></g><g clip-path="url(#1d6cc24101)"><g clip-path="url(#aa4400094b)"><path fill="url(#06b8a767ff)" d="M 5.988281 12.207031 L 5.988281 70.285156 L 76.234375 70.285156 L 76.234375 12.207031 Z M 5.988281 12.207031 " fill-rule="nonzero"/></g></g><g fill="#000000" fill-opacity="1"><g transform="translate(105.452367, 59.608902)"><g><path d="M 11.046875 1.390625 C 9.578125 1.390625 8.0625 1.296875 6.5 1.109375 C 5.144531 0.984375 3.875 0.390625 2.6875 -0.671875 C 1.507812 -1.742188 0.859375 -3.019531 0.734375 -4.5 C 0.671875 -5.4375 0.863281 -6.664062 1.3125 -8.1875 C 1.757812 -9.71875 2.359375 -11.523438 3.109375 -13.609375 C 4.015625 -16.203125 4.976562 -19.207031 6 -22.625 C 7.019531 -26.039062 7.929688 -29.894531 8.734375 -34.1875 C 9.171875 -34.28125 9.582031 -34.328125 9.96875 -34.328125 C 10.5625 -34.328125 11.335938 -34.234375 12.296875 -34.046875 C 13.253906 -33.859375 14.234375 -33.457031 15.234375 -32.84375 C 16.234375 -32.238281 16.828125 -31.546875 17.015625 -30.765625 C 18.429688 -31.941406 20.070312 -32.832031 21.9375 -33.4375 C 22.945312 -33.769531 23.972656 -33.9375 25.015625 -33.9375 C 25.859375 -33.9375 26.691406 -33.828125 27.515625 -33.609375 C 29.597656 -32.953125 31.296875 -31.738281 32.609375 -29.96875 C 34.140625 -27.875 35.003906 -25.359375 35.203125 -22.421875 C 35.347656 -20.359375 35.125 -18.207031 34.53125 -15.96875 C 32.757812 -9.875 29.421875 -5.285156 24.515625 -2.203125 C 20.703125 0.191406 16.210938 1.390625 11.046875 1.390625 Z M 10.5625 -5.1875 C 14.019531 -5.789062 16.867188 -6.894531 19.109375 -8.5 C 21.347656 -10.101562 23.015625 -12.132812 24.109375 -14.59375 C 24.972656 -16.632812 25.335938 -18.703125 25.203125 -20.796875 C 25.085938 -22.253906 24.707031 -23.453125 24.0625 -24.390625 C 23.488281 -25.203125 22.675781 -25.609375 21.625 -25.609375 C 21.269531 -25.609375 20.878906 -25.5625 20.453125 -25.46875 C 19.484375 -25.207031 18.378906 -24.484375 17.140625 -23.296875 C 15.910156 -22.117188 15.023438 -20.71875 14.484375 -19.09375 C 13.117188 -14.539062 12.238281 -11.578125 11.84375 -10.203125 C 11.1875 -7.890625 10.757812 -6.21875 10.5625 -5.1875 Z M 10.5625 -5.1875 "/></g></g></g><g fill="#000000" fill-opacity="1"><g transform="translate(139.336652, 59.608902)"><g><path d="M 11.5 0.6875 C 9 0.6875 6.878906 0.1875 5.140625 -0.8125 C 3.410156 -1.820312 2.1875 -3.265625 1.46875 -5.140625 C 1.125 -6.046875 0.914062 -7 0.84375 -8 C 0.769531 -9.101562 0.851562 -10.257812 1.09375 -11.46875 C 1.445312 -13.238281 2.082031 -14.910156 3 -16.484375 C 3.914062 -18.066406 5.082031 -19.476562 6.5 -20.71875 C 7.925781 -21.957031 9.5625 -22.929688 11.40625 -23.640625 C 13.25 -24.359375 15.265625 -24.71875 17.453125 -24.71875 L 17.90625 -24.71875 C 19.84375 -24.71875 21.515625 -24.304688 22.921875 -23.484375 C 24.328125 -22.660156 25.289062 -21.523438 25.8125 -20.078125 C 26.007812 -19.578125 26.125 -19.050781 26.15625 -18.5 C 26.21875 -17.488281 26.039062 -16.425781 25.625 -15.3125 C 24.894531 -13.707031 23.660156 -12.347656 21.921875 -11.234375 C 20.191406 -10.117188 18.257812 -9.28125 16.125 -8.71875 C 14.25 -8.238281 12.460938 -8 10.765625 -8 L 10.390625 -8.015625 C 10.628906 -7.378906 11.15625 -6.816406 11.96875 -6.328125 C 12.78125 -5.847656 13.828125 -5.609375 15.109375 -5.609375 C 16.765625 -5.648438 18.191406 -5.941406 19.390625 -6.484375 C 20.585938 -7.035156 21.675781 -7.78125 22.65625 -8.71875 C 23.21875 -8.46875 23.515625 -8.0625 23.546875 -7.5 C 23.546875 -7.394531 23.535156 -7.132812 23.515625 -6.71875 C 23.492188 -6.300781 23.203125 -5.648438 22.640625 -4.765625 C 22.085938 -3.890625 21.328125 -3.039062 20.359375 -2.21875 C 19.390625 -1.394531 18.238281 -0.707031 16.90625 -0.15625 C 15.570312 0.382812 14.070312 0.65625 12.40625 0.65625 Z M 10.4375 -12.96875 C 12.269531 -13.175781 13.945312 -13.597656 15.46875 -14.234375 C 17.445312 -15.066406 18.382812 -16.207031 18.28125 -17.65625 C 18.21875 -18.800781 17.535156 -19.375 16.234375 -19.375 C 15.203125 -19.3125 14.296875 -18.90625 13.515625 -18.15625 C 12.734375 -17.414062 12.078125 -16.523438 11.546875 -15.484375 C 11.015625 -14.453125 10.644531 -13.613281 10.4375 -12.96875 Z M 10.4375 -12.96875 "/></g></g></g><g fill="#000000" fill-opacity="1"><g transform="translate(164.497788, 59.608902)"><g><path d="M 8.9375 0.609375 C 8.25 0.609375 7.550781 0.53125 6.84375 0.375 C 5.46875 0.0078125 4.394531 -0.640625 3.625 -1.578125 C 2.851562 -2.515625 2.363281 -3.53125 2.15625 -4.625 C 2.113281 -4.976562 2.078125 -5.328125 2.046875 -5.671875 C 1.929688 -7.316406 2.1875 -9.6875 2.8125 -12.78125 C 3.550781 -16.25 3.847656 -19.046875 3.703125 -21.171875 C 3.640625 -22.128906 3.484375 -23.1875 3.234375 -24.34375 L 3.828125 -24.34375 C 5.617188 -24.34375 7.21875 -24.078125 8.625 -23.546875 C 10.03125 -23.015625 10.96875 -22.269531 11.4375 -21.3125 C 11.738281 -20.613281 11.910156 -19.890625 11.953125 -19.140625 C 12.046875 -17.773438 11.742188 -15.851562 11.046875 -13.375 C 10.703125 -12.132812 10.40625 -10.847656 10.15625 -9.515625 C 9.90625 -8.191406 9.816406 -6.988281 9.890625 -5.90625 C 11.929688 -8.03125 13.710938 -10.425781 15.234375 -13.09375 C 16.753906 -15.757812 17.867188 -18.1875 18.578125 -20.375 C 19.210938 -22.363281 19.5 -23.820312 19.4375 -24.75 L 19.421875 -25.03125 C 19.421875 -25.195312 19.519531 -25.28125 19.71875 -25.28125 C 19.894531 -25.28125 20.3125 -25.171875 20.96875 -24.953125 C 21.632812 -24.734375 22.453125 -24.367188 23.421875 -23.859375 C 24.398438 -23.347656 25.222656 -22.742188 25.890625 -22.046875 C 26.441406 -21.460938 26.738281 -20.84375 26.78125 -20.1875 C 26.800781 -19.988281 26.796875 -19.78125 26.765625 -19.5625 C 25.367188 -14.71875 23.535156 -10.804688 21.265625 -7.828125 C 17.640625 -3.015625 14.160156 -0.265625 10.828125 0.421875 C 10.191406 0.546875 9.5625 0.609375 8.9375 0.609375 Z M 8.9375 0.609375 "/></g></g></g><g fill="#000000" fill-opacity="1"><g transform="translate(188.580255, 59.608902)"><g><path d="M 12.21875 1.3125 L 11.796875 1.3125 C 9.328125 1.3125 6.945312 1.179688 4.65625 0.921875 C 3.351562 0.804688 2.28125 0.390625 1.4375 -0.328125 C 0.601562 -1.046875 0.140625 -2.117188 0.046875 -3.546875 C 0.015625 -4.484375 0.234375 -5.75 0.703125 -7.34375 C 1.179688 -8.9375 1.8125 -10.820312 2.59375 -13 C 3.570312 -15.726562 4.597656 -18.863281 5.671875 -22.40625 C 6.742188 -25.945312 7.6875 -29.882812 8.5 -34.21875 C 8.976562 -34.289062 9.4375 -34.328125 9.875 -34.328125 C 10.3125 -34.328125 10.894531 -34.28125 11.625 -34.1875 C 12.351562 -34.09375 13.144531 -33.816406 14 -33.359375 C 14.863281 -32.910156 15.445312 -32.367188 15.75 -31.734375 C 17.726562 -33.234375 19.84375 -33.984375 22.09375 -33.984375 C 24.039062 -33.984375 25.78125 -33.503906 27.3125 -32.546875 C 28.851562 -31.597656 29.882812 -30.300781 30.40625 -28.65625 C 30.5625 -28 30.65625 -27.382812 30.6875 -26.8125 C 30.78125 -25.40625 30.5 -24.007812 29.84375 -22.625 C 29.1875 -21.25 28.101562 -20.019531 26.59375 -18.9375 C 25.09375 -17.863281 23.71875 -17.125 22.46875 -16.71875 C 24.832031 -15.96875 26.710938 -14.726562 28.109375 -13 C 29.054688 -11.800781 29.570312 -10.554688 29.65625 -9.265625 C 29.695312 -8.640625 29.648438 -8.015625 29.515625 -7.390625 C 28.921875 -5.148438 27.75 -3.398438 26 -2.140625 C 24.257812 -0.890625 22.1875 -0.00390625 19.78125 0.515625 C 17.375 1.046875 14.851562 1.3125 12.21875 1.3125 Z M 13.59375 -5.28125 C 15.132812 -5.28125 16.550781 -5.515625 17.84375 -5.984375 C 19.144531 -6.453125 20.023438 -7.21875 20.484375 -8.28125 C 20.648438 -8.851562 20.710938 -9.390625 20.671875 -9.890625 C 20.617188 -10.597656 20.265625 -11.316406 19.609375 -12.046875 C 18.953125 -12.773438 17.894531 -13.382812 16.4375 -13.875 C 14.988281 -14.363281 13.625 -14.65625 12.34375 -14.75 C 11.15625 -11.53125 10.253906 -8.53125 9.640625 -5.75 C 10.691406 -5.4375 12.007812 -5.28125 13.59375 -5.28125 Z M 13.890625 -19.34375 C 14.753906 -19.363281 15.734375 -19.523438 16.828125 -19.828125 C 17.921875 -20.128906 18.890625 -20.609375 19.734375 -21.265625 C 20.585938 -21.921875 21.164062 -22.78125 21.46875 -23.84375 C 21.59375 -24.351562 21.640625 -24.800781 21.609375 -25.1875 C 21.554688 -25.6875 21.421875 -26.101562 21.203125 -26.4375 C 20.796875 -27.007812 20.164062 -27.296875 19.3125 -27.296875 C 18.632812 -27.296875 17.890625 -27.054688 17.078125 -26.578125 C 16.378906 -26.117188 15.785156 -25.539062 15.296875 -24.84375 C 14.828125 -22.632812 14.359375 -20.800781 13.890625 -19.34375 Z M 13.890625 -19.34375 "/></g></g></g><g fill="#000000" fill-opacity="1"><g transform="translate(218.220205, 59.608902)"><g><path d="M 21.078125 0.828125 C 20.390625 0.828125 19.421875 0.644531 18.171875 0.28125 C 16.921875 -0.0820312 16.1875 -1.40625 15.96875 -3.6875 C 15.90625 -5 16.046875 -6.335938 16.390625 -7.703125 C 16.734375 -9.066406 17.164062 -10.523438 17.6875 -12.078125 C 18.21875 -13.628906 18.738281 -15.332031 19.25 -17.1875 C 19.28125 -17.3125 19.296875 -17.414062 19.296875 -17.5 C 19.296875 -17.53125 19.273438 -17.546875 19.234375 -17.546875 C 19.117188 -17.546875 18.804688 -17.40625 18.296875 -17.125 C 17.796875 -16.851562 16.945312 -16.128906 15.75 -14.953125 C 14.550781 -13.785156 13.382812 -12.390625 12.25 -10.765625 C 11.113281 -9.140625 10.25 -7.46875 9.65625 -5.75 C 9.363281 -4.445312 9.25 -3.304688 9.3125 -2.328125 C 9.351562 -1.617188 9.523438 -0.929688 9.828125 -0.265625 C 8.078125 0.441406 6.535156 0.796875 5.203125 0.796875 C 4.503906 0.796875 3.523438 0.613281 2.265625 0.25 C 1.015625 -0.101562 0.28125 -1.414062 0.0625 -3.6875 C 0.0195312 -4.757812 0.265625 -6.191406 0.796875 -7.984375 C 1.328125 -9.773438 2 -11.796875 2.8125 -14.046875 C 3.96875 -17.253906 5.035156 -20.625 6.015625 -24.15625 C 7.003906 -27.6875 7.484375 -31.109375 7.453125 -34.421875 C 8.953125 -34.378906 10.304688 -34.226562 11.515625 -33.96875 C 12.722656 -33.707031 13.734375 -33.34375 14.546875 -32.875 C 15.367188 -32.40625 15.804688 -31.8125 15.859375 -31.09375 C 15.953125 -29.75 15.875 -28.304688 15.625 -26.765625 C 15.382812 -25.234375 15.035156 -23.648438 14.578125 -22.015625 C 14.128906 -20.378906 13.734375 -19.0625 13.390625 -18.0625 C 14.453125 -19.15625 15.773438 -20.21875 17.359375 -21.25 C 18.953125 -22.28125 20.472656 -23.128906 21.921875 -23.796875 C 23.296875 -24.441406 24.582031 -24.765625 25.78125 -24.765625 C 26.03125 -24.765625 26.570312 -24.710938 27.40625 -24.609375 C 28.238281 -24.515625 28.882812 -23.929688 29.34375 -22.859375 C 29.5 -22.441406 29.59375 -22 29.625 -21.53125 C 29.726562 -19.875 29.015625 -16.90625 27.484375 -12.625 C 25.796875 -7.863281 25.015625 -4.507812 25.140625 -2.5625 C 25.203125 -1.789062 25.398438 -1.023438 25.734375 -0.265625 C 23.972656 0.460938 22.421875 0.828125 21.078125 0.828125 Z M 21.078125 0.828125 "/></g></g></g><g fill="#000000" fill-opacity="1"><g transform="translate(246.781486, 59.608902)"><g><path d="M 19.71875 0.796875 C 19.019531 0.796875 18.046875 0.613281 16.796875 0.25 C 15.546875 -0.101562 14.800781 -1.414062 14.5625 -3.6875 C 14.519531 -4.382812 14.5 -4.726562 14.5 -4.71875 C 12.207031 -1.050781 9.59375 0.78125 6.65625 0.78125 C 4.800781 0.78125 3.269531 0.269531 2.0625 -0.75 C 0.851562 -1.769531 0.1875 -3.191406 0.0625 -5.015625 C 0.0195312 -6.160156 0.207031 -7.390625 0.625 -8.703125 C 1.039062 -10.015625 1.53125 -11.367188 2.09375 -12.765625 C 2.90625 -14.679688 3.535156 -16.578125 3.984375 -18.453125 C 4.234375 -19.410156 4.328125 -20.316406 4.265625 -21.171875 C 4.203125 -22.003906 3.984375 -22.863281 3.609375 -23.75 C 5.359375 -24.476562 6.898438 -24.84375 8.234375 -24.84375 C 8.929688 -24.84375 9.898438 -24.660156 11.140625 -24.296875 C 12.390625 -23.929688 13.125 -22.609375 13.34375 -20.328125 C 13.394531 -18.890625 13.144531 -17.378906 12.59375 -15.796875 C 12.039062 -14.210938 11.445312 -12.710938 10.8125 -11.296875 C 10.40625 -10.410156 10.066406 -9.609375 9.796875 -8.890625 C 9.535156 -8.179688 9.410156 -7.648438 9.421875 -7.296875 C 9.441406 -7.078125 9.582031 -6.96875 9.84375 -6.96875 C 10.832031 -6.96875 11.800781 -7.378906 12.75 -8.203125 C 13.695312 -9.035156 14.582031 -10.132812 15.40625 -11.5 C 16.238281 -12.875 16.972656 -14.351562 17.609375 -15.9375 C 18.253906 -17.519531 18.765625 -19.066406 19.140625 -20.578125 C 19.515625 -22.085938 19.738281 -23.492188 19.8125 -24.796875 C 22 -24.703125 23.828125 -24.382812 25.296875 -23.84375 C 26.773438 -23.3125 27.660156 -22.609375 27.953125 -21.734375 C 28.046875 -21.421875 28.101562 -21.085938 28.125 -20.734375 C 28.1875 -19.796875 28.03125 -18.625 27.65625 -17.21875 C 27.289062 -15.8125 26.757812 -14.171875 26.0625 -12.296875 C 25.226562 -10.066406 24.566406 -7.90625 24.078125 -5.8125 C 23.785156 -4.644531 23.671875 -3.578125 23.734375 -2.609375 C 23.796875 -1.828125 23.988281 -1.035156 24.3125 -0.234375 C 22.582031 0.453125 21.050781 0.796875 19.71875 0.796875 Z M 19.71875 0.796875 "/></g></g></g><g fill="#000000" fill-opacity="1"><g transform="translate(273.77167, 59.608902)"><g><path d="M 33.8125 0.828125 C 33.125 0.828125 32.15625 0.644531 30.90625 0.28125 C 29.65625 -0.0820312 28.921875 -1.40625 28.703125 -3.6875 C 28.609375 -5.039062 28.738281 -6.410156 29.09375 -7.796875 C 29.457031 -9.179688 29.914062 -10.664062 30.46875 -12.25 C 30.976562 -13.757812 31.484375 -15.40625 31.984375 -17.1875 C 32.015625 -17.3125 32.03125 -17.421875 32.03125 -17.515625 C 32.03125 -17.535156 32.023438 -17.546875 32.015625 -17.546875 C 31.867188 -17.546875 31.488281 -17.3125 30.875 -16.84375 C 30.269531 -16.382812 29.347656 -15.359375 28.109375 -13.765625 C 26.878906 -12.171875 25.796875 -10.375 24.859375 -8.375 C 23.921875 -6.375 23.46875 -4.410156 23.5 -2.484375 C 23.539062 -1.753906 23.71875 -1.015625 24.03125 -0.265625 C 22.28125 0.460938 20.742188 0.828125 19.421875 0.828125 C 18.710938 0.828125 17.738281 0.644531 16.5 0.28125 C 15.257812 -0.0820312 14.519531 -1.40625 14.28125 -3.6875 C 14.21875 -5 14.359375 -6.335938 14.703125 -7.703125 C 15.046875 -9.066406 15.484375 -10.523438 16.015625 -12.078125 C 16.546875 -13.628906 17.0625 -15.332031 17.5625 -17.1875 C 17.59375 -17.332031 17.609375 -17.441406 17.609375 -17.515625 C 17.609375 -17.535156 17.617188 -17.546875 17.640625 -17.546875 C 17.546875 -17.546875 17.28125 -17.398438 16.84375 -17.109375 C 16.414062 -16.816406 15.679688 -16.054688 14.640625 -14.828125 C 13.609375 -13.609375 12.601562 -12.164062 11.625 -10.5 C 10.644531 -8.832031 9.921875 -7.125 9.453125 -5.375 C 9.242188 -4.382812 9.171875 -3.476562 9.234375 -2.65625 C 9.296875 -1.851562 9.492188 -1.046875 9.828125 -0.234375 C 8.078125 0.453125 6.535156 0.796875 5.203125 0.796875 C 4.503906 0.796875 3.523438 0.613281 2.265625 0.25 C 1.015625 -0.101562 0.28125 -1.414062 0.0625 -3.6875 C 0.0195312 -4.945312 0.257812 -6.445312 0.78125 -8.1875 C 1.3125 -9.9375 1.925781 -11.773438 2.625 -13.703125 C 3.363281 -15.742188 4.015625 -17.710938 4.578125 -19.609375 C 5.140625 -21.515625 5.375 -23.25 5.28125 -24.8125 C 7.476562 -24.707031 9.304688 -24.382812 10.765625 -23.84375 C 12.234375 -23.3125 13.117188 -22.609375 13.421875 -21.734375 C 13.523438 -21.421875 13.585938 -21.09375 13.609375 -20.75 C 13.648438 -20.019531 13.632812 -19.488281 13.5625 -19.15625 C 15.25 -20.925781 17.472656 -22.472656 20.234375 -23.796875 C 21.609375 -24.441406 22.890625 -24.765625 24.078125 -24.765625 C 24.328125 -24.765625 24.867188 -24.710938 25.703125 -24.609375 C 26.546875 -24.515625 27.195312 -23.929688 27.65625 -22.859375 C 27.8125 -22.421875 27.90625 -21.953125 27.9375 -21.453125 C 28 -20.472656 27.941406 -19.640625 27.765625 -18.953125 C 28.503906 -19.773438 29.503906 -20.640625 30.765625 -21.546875 C 33.785156 -23.691406 36.359375 -24.765625 38.484375 -24.765625 C 38.734375 -24.765625 39.28125 -24.710938 40.125 -24.609375 C 40.96875 -24.515625 41.617188 -23.929688 42.078125 -22.859375 C 42.210938 -22.453125 42.296875 -22.015625 42.328125 -21.546875 C 42.441406 -19.859375 41.738281 -16.898438 40.21875 -12.671875 C 39.394531 -10.316406 38.722656 -8.046875 38.203125 -5.859375 C 37.921875 -4.640625 37.8125 -3.546875 37.875 -2.578125 C 37.9375 -1.796875 38.132812 -1.023438 38.46875 -0.265625 C 36.707031 0.460938 35.15625 0.828125 33.8125 0.828125 Z M 33.8125 0.828125 "/></g></g></g><g fill="#000000" fill-opacity="1"><g transform="translate(315.112841, 59.608902)"><g><path d="M 5.328125 0.796875 C 4.617188 0.796875 3.632812 0.613281 2.375 0.25 C 1.113281 -0.101562 0.375 -1.414062 0.15625 -3.6875 C 0.113281 -4.945312 0.351562 -6.445312 0.875 -8.1875 C 1.40625 -9.9375 2.019531 -11.773438 2.71875 -13.703125 C 3.488281 -15.742188 4.144531 -17.710938 4.6875 -19.609375 C 5.238281 -21.515625 5.46875 -23.25 5.375 -24.8125 C 7.570312 -24.707031 9.398438 -24.382812 10.859375 -23.84375 C 12.328125 -23.3125 13.210938 -22.609375 13.515625 -21.734375 C 13.617188 -21.421875 13.679688 -21.085938 13.703125 -20.734375 C 13.765625 -19.804688 13.609375 -18.640625 13.234375 -17.234375 C 12.867188 -15.828125 12.34375 -14.203125 11.65625 -12.359375 C 9.96875 -7.890625 9.191406 -4.644531 9.328125 -2.625 C 9.390625 -1.84375 9.585938 -1.046875 9.921875 -0.234375 C 8.179688 0.453125 6.648438 0.796875 5.328125 0.796875 Z M 11.4375 -26.0625 C 10.582031 -26.0625 9.734375 -26.285156 8.890625 -26.734375 C 7.460938 -27.578125 6.703125 -28.671875 6.609375 -30.015625 C 6.546875 -31.046875 6.898438 -32.117188 7.671875 -33.234375 C 8.554688 -34.460938 9.632812 -35.242188 10.90625 -35.578125 C 11.289062 -35.671875 11.695312 -35.71875 12.125 -35.71875 C 12.96875 -35.71875 13.828125 -35.488281 14.703125 -35.03125 C 16.109375 -34.238281 16.851562 -33.175781 16.9375 -31.84375 C 17.007812 -30.800781 16.65625 -29.71875 15.875 -28.59375 C 15 -27.351562 13.9375 -26.5625 12.6875 -26.21875 C 12.257812 -26.113281 11.84375 -26.0625 11.4375 -26.0625 Z M 11.4375 -26.0625 "/></g></g></g></svg>